#!OML:ASF Y:\EmotionMaleHayes\Project 1\Capture day 1\Session 1\Male1.ASF
:FULLY-SPECIFIED
:DEGREES
52
root -27.0866 16.7368 2.20541 76.8223 84.1545 70.7845
lowerback 8.60008 0.323865 -6.9921
upperback 1.26835 -0.199964 -1.02511
thorax -3.48292 0.00640881 2.88503
lowerneck -27.5846 4.61555 0.942155
upperneck 29.2167 8.66222 -5.46003
head 15.1481 3.05137 -0.595565
rclavicle -3.60297e-015 -1.11319e-014
rhumerus -43.1618 -3.71256 -58.0368
rradius 51.1307
rwrist -3.95103
rhand -4.49899 -28.6748
rfingers 7.12502
rthumb 21.2747 -57.5272
lclavicle -3.60297e-015 -1.11319e-014
lhumerus -15.2078 -10.2624 66.8813
lradius 55.9485
lwrist 7.29847
lhand -40.3531 -50.9521
lfingers 7.12502
lthumb -13.3081 -21.3971
rfemur 0.0803229 -11.4866 11.2817
rtibia 24.2869
rfoot -33.3747 -19.025
rtoes 6.19317
lfemur 4.86744 8.71031 -6.53183
ltibia 9.67185
lfoot -16.7387 1.19325
ltoes -23.3858
53
root -27.0639 16.7011 2.25283 68.0349 83.9816 61.4901
lowerback 8.6183 0.593334 -6.44421
upperback 1.1452 0.196096 -1.01218
thorax -3.66088 0.201175 2.54555
lowerneck -27.3571 4.57269 0.866021
upperneck 29.1935 8.5754 -5.31176
head 15.0708 3.03594 -0.544354
rclavicle 3.85145e-015 -7.85199e-015
rhumerus -42.5705 -3.57449 -57.0512
rradius 53.3094
rwrist -5.16092
rhand -5.37966 -28.797
rfingers 7.12502
rthumb 20.4286 -57.7424
lclavicle 3.85145e-015 -7.85199e-015
lhumerus -16.5142 -9.05149 66.9467
lradius 56.4711
lwrist 6.89604
lhand -41.3585 -52.0807
lfingers 7.12502
lthumb -14.2771 -22.5915
rfemur -1.0601 -11.1681 11.7938
rtibia 25.172
rfoot -33.389 -18.8491
rtoes 3.86215
lfemur 4.26339 9.26774 -6.10374
ltibia 10.5994
lfoot -16.8886 1.26182
ltoes -24.8004
54
root -27.0265 16.6698 2.32262 73.2491 83.8125 66.4669
lowerback 8.76752 0.468064 -6.48732
upperback 1.16385 0.0141704 -1.09774
thorax -3.70788 0.113493 2.50166
lowerneck -27.16 4.54387 0.929249
upperneck 29.217 8.45038 -5.16289
head 15.0263 3.01771 -0.52358
rclavicle 1.39149e-015 5.86415e-015
rhumerus -41.8889 -3.52656 -56.1684
rradius 55.5043
rwrist -6.30104
rhand -6.69689 -29.2712
rfingers 7.12502
rthumb 19.1623 -58.3472
lclavicle 1.39149e-015 5.86415e-015
lhumerus -17.8106 -7.9666 66.9504
lradius 56.9903
lwrist 6.60564
lhand -42.2035 -52.5948
lfingers 7.12502
lthumb -15.0912 -23.165
rfemur -1.10512 -11.5608 11.6345
rtibia 25.2977
rfoot -33.6954 -18.9865
rtoes 3.49426
lfemur 3.26233 9.35153 -6.0889
ltibia 12.045
lfoot -16.7405 0.182503
ltoes -26.628
55
root -26.9872 16.6442 2.39588 79.2039 83.7663 72.4254
lowerback 9.24644 0.32137 -6.49696
upperback 1.22776 -0.213241 -1.09587
thorax -3.88735 0.00690298 2.53699
lowerneck -26.8404 4.5103 1.06222
upperneck 29.1024 8.29576 -5.08359
head 14.9003 2.99102 -0.551727
rclavicle 1.09332e-015 -2.98177e-016
rhumerus -41.097 -3.55632 -55.2113
rradius 57.6752
rwrist -7.56047
rhand -8.09223 -30.1547
rfingers 7.12502
rthumb 17.8201 -59.3582
lclavicle 1.09332e-015 -2.98177e-016
lhumerus -19.2439 -6.88143 66.9828
lradius 57.5434
lwrist 6.36856
lhand -42.5253 -52.3917
lfingers 7.12502
lthumb -15.4012 -22.9854
rfemur -0.830741 -11.9714 11.6031
rtibia 25.4023
rfoot -34.2117 -19.0813
rtoes 3.75435
lfemur 2.3857 9.07402 -5.89685
ltibia 13.6933
lfoot -16.702 -1.00088
ltoes -28.2153
56
root -26.9594 16.6124 2.46212 75.6191 84.0426 68.6366
lowerback 9.61689 0.443738 -5.99299
upperback 1.23037 -0.0239912 -0.929328
thorax -4.10908 0.0989041 2.4048
lowerneck -26.6309 4.42244 1.11101
upperneck 29.0621 8.09644 -4.9698
head 14.8238 2.9356 -0.558768
rclavicle 2.78299e-015 2.5842e-015
rhumerus -40.1277 -3.51431 -54.2117
rradius 59.7888
rwrist -8.66177
rhand -9.19256 -31.2058
rfingers 7.12502
rthumb 16.7611 -60.5023
lclavicle 2.78299e-015 2.5842e-015
lhumerus -20.8114 -5.42479 67.0376
lradius 57.9779
lwrist 6.07666
lhand -41.516 -51.4858
lfingers 7.12502
lthumb -14.4288 -22.0074
rfemur -1.31084 -11.7214 12.4225
rtibia 25.9518
rfoot -34.6937 -18.961
rtoes 4.36372
lfemur 1.61614 9.29727 -4.96694
ltibia 15.2939
lfoot -16.7932 -1.78683
ltoes -29.9125
57
root -26.9211 16.5788 2.53304 73.8823 84.3098 66.7285
lowerback 9.83389 0.49443 -5.56782
upperback 1.32602 0.0830913 -0.768962
thorax -4.13879 0.145045 2.31964
lowerneck -26.5365 4.35022 1.03997
upperneck 29.0995 7.89221 -4.6171
head 14.7857 2.89387 -0.446948
rclavicle 9.44227e-016 1.21259e-014
rhumerus -38.9821 -3.48055 -53.2697
rradius 61.8901
rwrist -9.64345
rhand -10.3463 -32.2522
rfingers 7.12502
rthumb 15.6501 -61.6392
lclavicle 9.44227e-016 1.21259e-014
lhumerus -21.9421 -4.09959 67.0976
lradius 58.0552
lwrist 6.19122
lhand -40.9465 -50.1874
lfingers 7.12502
lthumb -13.8801 -20.6706
rfemur -1.55343 -11.5727 13.1507
rtibia 26.3235
rfoot -35.1442 -18.8056
rtoes 5.04232
lfemur 0.844043 9.46131 -4.02979
ltibia 16.7864
lfoot -16.5882 -2.72595
ltoes -31.6004
58
root -26.8654 16.5526 2.6108 81.1183 84.585 74.134
lowerback 10.2221 0.26692 -5.31651
upperback 1.58824 -0.19559 -0.665541
thorax -4.05773 0.000651742 2.32424
lowerneck -26.3861 4.31426 1.10974
upperneck 28.9798 7.69991 -4.37541
head 14.6804 2.86039 -0.403234
rclavicle 3.72721e-015 6.75868e-015
rhumerus -37.6326 -3.64518 -52.4408
rradius 63.9833
rwrist -10.4744
rhand -11.3261 -33.1199
rfingers 7.12502
rthumb 14.7063 -62.5783
lclavicle 3.72721e-015 6.75868e-015
lhumerus -23.6075 -3.34857 67.1271
lradius 58.8528
lwrist 6.3914
lhand -41.2339 -48.0997
lfingers 7.12502
lthumb -14.157 -18.602
rfemur -0.98371 -11.9707 13.4756
rtibia 26.4465
rfoot -35.8575 -18.7476
rtoes 4.9415
lfemur 0.0890555 8.98874 -3.33782
ltibia 18.2981
lfoot -16.1711 -4.03587
ltoes -32.1361
59
root -26.8633 16.5064 2.688 77.6677 84.5687 70.0839
lowerback 10.4576 0.388731 -5.25153
upperback 1.49291 -0.0455301 -0.608491
thorax -4.3007 0.0808186 2.32725
lowerneck -26.322 4.28372 1.41444
upperneck 28.9541 7.50547 -4.35604
head 14.6597 2.81547 -0.48752
rclavicle -1.98785e-016 5.1684e-015
rhumerus -36.1679 -3.88849 -51.7
rradius 66.0226
rwrist -11.2268
rhand -11.9689 -33.7284
rfingers 7.12502
rthumb 14.087 -63.2309
lclavicle -1.98785e-016 5.1684e-015
lhumerus -25.224 -2.46929 67.0107
lradius 59.3133
lwrist 7.07401
lhand -40.022 -45.9553
lfingers 7.12502
lthumb -12.989 -16.3797
rfemur -2.35876 -11.76 14.1238
rtibia 27.7321
rfoot -36.5141 -18.5342
rtoes 4.36428
lfemur -1.43954 9.52542 -2.71759
ltibia 20.2147
lfoot -15.7038 -5.03685
ltoes -32.0697
60
root -26.7861 16.4805 2.74892 74.4837 84.3675 67.0701
lowerback 10.6374 0.546194 -5.12145
upperback 1.79095 0.184302 -0.639189
thorax -4.10555 0.186047 2.19003
lowerneck -26.2389 4.16323 1.52077
upperneck 28.9756 7.22393 -4.19643
head 14.6359 2.73236 -0.499408
rclavicle 1.68967e-015 -2.5842e-015
rhumerus -34.7516 -4.31013 -50.8323
rradius 67.993
rwrist -11.9542
rhand -12.691 -34.4379
rfingers 7.12502
rthumb 13.391 -63.9875
lclavicle 1.68967e-015 -2.5842e-015
lhumerus -27.2136 -1.79979 66.9506
lradius 60.112
lwrist 7.58356
lhand -38.153 -43.6623
lfingers 7.12502
lthumb -11.1868 -13.9805
rfemur -2.06394 -11.7225 14.0937
rtibia 27.9988
rfoot -36.7109 -18.3875
rtoes 3.37054
lfemur -1.52207 9.43377 -2.3423
ltibia 21.3461
lfoot -15.1605 -5.79228
ltoes -32.7773
61
root -26.7309 16.4466 2.82045 73.7497 84.4062 66.1921
lowerback 10.7846 0.649213 -4.87879
upperback 1.95367 0.350784 -0.603805
thorax -4.02825 0.262663 2.06699
lowerneck -26.1616 3.9399 1.34127
upperneck 29.0011 6.80096 -3.71532
head 14.5816 2.60394 -0.361159
rclavicle -1.98785e-016 1.59028e-015
rhumerus -33.2954 -4.91085 -49.9833
rradius 69.8693
rwrist -12.6073
rhand -14.335 -35.5802
rfingers 7.12502
rthumb 11.8061 -65.2274
lclavicle -1.98785e-016 1.59028e-015
lhumerus -28.1929 -0.904586 66.9803
lradius 59.1647
lwrist 7.20874
lhand -36.8943 -41.4073
lfingers 7.12502
lthumb -9.97266 -11.6635
rfemur -2.13171 -11.7191 14.4713
rtibia 28.1032
rfoot -36.8428 -18.6724
rtoes 2.16499
lfemur -2.29014 9.22469 -1.76684
ltibia 22.7952
lfoot -14.7353 -6.69598
ltoes -33.1618
62
root -26.6907 16.4154 2.89421 72.541 84.5675 64.8904
lowerback 11.2563 0.67483 -4.60797
upperback 2.05236 0.399791 -0.523932
thorax -4.18856 0.287473 1.98893
lowerneck -26.0437 3.85336 1.31426
upperneck 29.0678 6.54792 -3.31752
head 14.5559 2.55304 -0.247879
rclavicle -6.95746e-016 -2.34566e-014
rhumerus -31.6184 -5.34996 -49.3528
rradius 71.7392
rwrist -13.3506
rhand -16.6333 -36.5635
rfingers 7.12502
rthumb 9.58917 -66.3253
lclavicle -6.95746e-016 -2.34566e-014
lhumerus -29.7042 -0.216192 66.7769
lradius 58.8511
lwrist 7.23604
lhand -34.9191 -38.8874
lfingers 7.12502
lthumb -8.06672 -9.06138
rfemur -2.23904 -11.6383 15.0621
rtibia 28.369
rfoot -37.1681 -18.9239
rtoes 1.58664
lfemur -3.12247 8.91844 -1.0495
ltibia 24.3416
lfoot -14.3725 -7.6678
ltoes -32.4081
63
root -26.6583 16.3807 2.96393 68.1889 84.7788 60.2112
lowerback 11.5111 0.719883 -4.20498
upperback 2.12821 0.503299 -0.407272
thorax -4.25523 0.334739 1.86735
lowerneck -25.8627 3.82216 1.47013
upperneck 28.9773 6.37083 -3.16868
head 14.4704 2.52091 -0.253104
rclavicle -7.45443e-015 3.18055e-015
rhumerus -29.7491 -5.82063 -48.8512
rradius 73.6624
rwrist -14.1615
rhand -18.0387 -37.0388
rfingers 7.12502
rthumb 8.23296 -66.8584
lclavicle -7.45443e-015 3.18055e-015
lhumerus -31.3457 0.552656 66.4498
lradius 58.6895
lwrist 7.47122
lhand -32.3471 -36.5002
lfingers 7.12502
lthumb -5.58386 -6.5938
rfemur -2.76518 -11.4221 15.8973
rtibia 28.8422
rfoot -37.4681 -19.0544
rtoes 1.31089
lfemur -4.22813 8.87005 -0.187566
ltibia 25.9807
lfoot -13.9825 -8.49483
ltoes -31.0673
64
root -26.6022 16.3601 3.03674 72.4337 85.0107 64.4917
lowerback 11.9576 0.570189 -3.97955
upperback 2.3433 0.329615 -0.336579
thorax -4.2642 0.247808 1.83919
lowerneck -25.792 3.79484 1.66771
upperneck 29.0117 6.24317 -3.15461
head 14.4732 2.49152 -0.30709
rclavicle -4.77083e-015 -7.55382e-015
rhumerus -27.8066 -6.52286 -48.3675
rradius 75.4814
rwrist -14.8758
rhand -18.541 -37.7059
rfingers 7.12502
rthumb 7.74822 -67.5439
lclavicle -4.77083e-015 -7.55382e-015
lhumerus -32.8842 1.09107 66.2897
lradius 58.268
lwrist 7.49114
lhand -30.123 -33.9263
lfingers 7.12502
lthumb -3.43623 -3.97423
rfemur -2.28399 -11.7461 16.217
rtibia 28.6794
rfoot -37.8253 -19.1715
rtoes 1.75588
lfemur -5.19944 8.17943 0.27341
ltibia 27.5069
lfoot -13.4289 -9.4895
ltoes -29.3978
65
root -26.547 16.3333 3.10398 70.8983 84.9699 62.7959
lowerback 12.3172 0.675228 -3.78849
upperback 2.42558 0.482541 -0.33939
thorax -4.38402 0.323839 1.70286
lowerneck -25.7013 3.67278 1.80585
upperneck 29.0906 5.99196 -3.09098
head 14.483 2.41112 -0.355634
rclavicle -8.94531e-016 -8.74653e-015
rhumerus -25.9523 -7.42553 -47.9108
rradius 77.1621
rwrist -15.4678
rhand -19.0214 -38.748
rfingers 7.12502
rthumb 7.28448 -68.6026
lclavicle -8.94531e-016 -8.74653e-015
lhumerus -34.3474 1.49727 66.0683
lradius 57.6032
lwrist 7.87102
lhand -26.7126 -31.6843
lfingers 7.12502
lthumb -0.142533 -1.70462
rfemur -2.24547 -11.8043 16.4795
rtibia 28.7759
rfoot -38.1468 -18.926
rtoes 2.07562
lfemur -6.06313 7.94961 0.632041
ltibia 28.9042
lfoot -13.0655 -10.113
ltoes -28.6718
